<svg xmlns="http://www.w3.org/2000/svg" width="320" height="320" viewBox="0 0 320 320">

<defs>

<linearGradient id="bodyGrad" x1="0" y1="0" x2="1" y2="1">
<stop offset="0%" stop-color="#0d1b2a"/>
<stop offset="50%" stop-color="#132238"/>
<stop offset="100%" stop-color="#08111d"/>
</linearGradient>

<linearGradient id="cyanGlow" x1="0" y1="0" x2="1" y2="1">
<stop offset="0%" stop-color="#00f5ff"/>
<stop offset="100%" stop-color="#00b4d8"/>
</linearGradient>

<filter id="glow">
<fegaussianblur stdDeviation="6" result="blur"/>
<femerge>
<femergenode in="blur"/>
<femergenode in="SourceGraphic"/>
</femerge>
</filter>

</defs>

<!-- SHADOW -->

<ellipse
cx="160"
cy="282"
rx="92"
ry="18"
fill="rgba(0,0,0,.45)"
opacity=".45"
/>

<!-- HEAD -->

<polygon
points="
160,26
184,38
192,66
172,86
146,86
126,66
134,38
"
fill="#1b263b"
/>

<!-- FACE -->

<polygon
points="
160,48
172,72
160,90
148,72
"
fill="#3b4d63"
/>

<!-- BODY -->

<polygon
points="
120,96
160,78
200,96
222,170
160,204
98,170
"
fill="url(#bodyGrad)"
/>

<!-- CHEST LIGHT -->

<polygon
points="
160,100
186,122
176,150
144,150
134,122
"
fill="#16314f"
opacity=".9"
/>

<!-- LEFT ARM -->

<polygon
points="
118,102
58,126
42,146
50,162
70,162
124,134
"
fill="url(#bodyGrad)"
/>

<!-- RIGHT ARM -->

<polygon
points="
202,102
262,126
278,146
270,162
250,162
196,134
"
fill="url(#bodyGrad)"
/>

<!-- LEFT GLOVE -->

<polygon
points="
34,144
56,132
72,148
58,170
34,164
"
fill="url(#cyanGlow)"
filter="url(#glow)"
/>

<!-- RIGHT GLOVE -->

<polygon
points="
286,144
264,132
248,148
262,170
286,164
"
fill="url(#cyanGlow)"
filter="url(#glow)"
/>

<!-- LEFT LEG -->

<polygon
points="
126,172
154,198
144,272
116,278
104,260
"
fill="#0b1724"
/>

<!-- RIGHT LEG -->

<polygon
points="
194,172
166,198
176,272
204,278
216,260
"
fill="#0b1724"
/>

<!-- LEFT SHOE -->

<polygon
points="
104,260
146,266
142,282
102,280
"
fill="#050b12"
/>

<!-- RIGHT SHOE -->

<polygon
points="
216,260
174,266
178,282
218,280
"
fill="#050b12"
/>

<!-- NUMBER -->

<text
x="160"
y="145"
text-anchor="middle"
font-size="34"
font-family="Arial"
font-weight="700"
fill="#00e5ff"
opacity=".95"
>
1
</text>

<!-- CV LOGO -->

<text
x="188"
y="118"
font-size="16"
font-family="Arial"
font-weight="700"
fill="#00f5ff"
opacity=".9"
>
</text>

<!-- CYAN EDGE LIGHTS -->

<polyline
points="120,96 160,78 200,96"
fill="none"
stroke="#00f5ff"
stroke-width="2"
opacity=".65"
/>

<polyline
points="118,102 58,126 42,146"
fill="none"
stroke="#00f5ff"
stroke-width="2"
opacity=".35"
/>

<polyline
points="202,102 262,126 278,146"
fill="none"
stroke="#00f5ff"
stroke-width="2"
opacity=".35"
/>

</svg>
